<?xml version="1.0" encoding="utf-8"?>
<!-- Generator: Adobe Illustrator 16.0.0, SVG Export Plug-In . SVG Version: 6.00 Build 0)  -->
<!DOCTYPE svg PUBLIC "-//W3C//DTD SVG 1.1//EN" "http://www.w3.org/Graphics/SVG/1.1/DTD/svg11.dtd">
<svg version="1.1" id="Capa_1" xmlns="http://www.w3.org/2000/svg" xmlns:xlink="http://www.w3.org/1999/xlink" x="0px" y="0px"
	 width="200px" height="200px" viewBox="0 0 200 200" enable-background="new 0 0 200 200" xml:space="preserve">
<g>
	<path fill="#3DD381" d="M172.376,66.01H98.972c-3.887,0-7.046,3.161-7.046,7.046v13.18H48.221v3.984h43.705v24.688H74.943v3.983
		h17.306c0.864,2.918,3.533,5.059,6.723,5.059h25.099c1.693,0,3.07,1.377,3.07,3.065s-1.377,3.066-3.07,3.066H61.259v3.984h62.813
		c3.892,0,7.055-3.164,7.055-7.051v-13.178h41.25V66.01z M127.142,120.697c-0.934-0.451-1.965-0.731-3.07-0.731H98.972
		c-1.688,0-3.062-1.373-3.062-3.066c0-1.688,1.374-3.062,3.062-3.062h28.169V120.697z M168.392,109.854H98.972
		c-1.097,0-2.136,0.253-3.062,0.7V73.056c0-1.688,1.374-3.062,3.062-3.062h69.419V109.854z"/>
	<rect x="107.781" y="73.469" fill="#3DD381" width="3.984" height="32.357"/>
	<rect x="117.637" y="73.469" fill="#3DD381" width="3.983" height="32.357"/>
	<rect x="127.142" y="73.469" fill="#3DD381" width="3.984" height="20.016"/>
	<rect x="35.938" y="99.304" fill="#3DD381" width="26.126" height="3.984"/>
	<rect x="26.347" y="118.433" fill="#3DD381" width="9.591" height="3.984"/>
</g>
</svg>
