<?xml version="1.0" encoding="utf-8"?>
<!-- Generator: Adobe Illustrator 16.0.0, SVG Export Plug-In . SVG Version: 6.00 Build 0)  -->
<!DOCTYPE svg PUBLIC "-//W3C//DTD SVG 1.1//EN" "http://www.w3.org/Graphics/SVG/1.1/DTD/svg11.dtd">
<svg version="1.1" id="Capa_1" xmlns="http://www.w3.org/2000/svg" xmlns:xlink="http://www.w3.org/1999/xlink" x="0px" y="0px"
	 width="200px" height="200px" viewBox="0 0 200 200" enable-background="new 0 0 200 200" xml:space="preserve">
<g>
	<polygon fill="#BEBDC6" points="134.438,187.027 62.387,187.027 62.387,86.326 74.983,86.326 74.983,90.128 66.189,90.128 
		66.189,183.225 130.637,183.225 130.637,90.128 120.152,90.128 120.152,86.326 134.438,86.326 	"/>
</g>
<g>
	<rect x="71.121" y="106.13" fill="#3DD381" width="54.584" height="11.729"/>
</g>
<g>
	<rect x="73.321" y="126.559" fill="#BEBDC6" width="9.867" height="9.866"/>
</g>
<g>
	<rect x="92.869" y="126.559" fill="#BEBDC6" width="9.866" height="9.866"/>
</g>
<g>
	<rect x="112.417" y="126.559" fill="#BEBDC6" width="9.867" height="9.866"/>
</g>
<g>
	<rect x="73.321" y="146.109" fill="#BEBDC6" width="9.867" height="9.864"/>
</g>
<g>
	<rect x="92.869" y="146.109" fill="#BEBDC6" width="9.866" height="9.864"/>
</g>
<g>
	<rect x="112.417" y="146.109" fill="#BEBDC6" width="9.867" height="29.415"/>
</g>
<g>
	<rect x="73.321" y="165.654" fill="#BEBDC6" width="9.867" height="9.87"/>
</g>
<g>
	<rect x="92.869" y="165.654" fill="#BEBDC6" width="9.866" height="9.87"/>
</g>
<g>
	<rect x="72.922" y="96.355" fill="#BEBDC6" width="50.093" height="3.911"/>
</g>
<g>
	<g>
		
			<rect x="140.448" y="64.878" transform="matrix(0.7069 0.7073 -0.7073 0.7069 88.3134 -81.9833)" fill="#BEBDC6" width="5.25" height="1.368"/>
	</g>
	<g>
		
			<rect x="148.138" y="72.568" transform="matrix(0.7071 0.7071 -0.7071 0.7071 95.9544 -85.1511)" fill="#BEBDC6" width="5.251" height="1.368"/>
	</g>
	<g>
		
			<rect x="150.08" y="62.937" transform="matrix(0.7069 0.7073 -0.7073 0.7069 90.556 -87.4184)" fill="#BEBDC6" width="1.368" height="5.252"/>
	</g>
	<g>
		
			<rect x="142.389" y="70.627" transform="matrix(0.7066 0.7076 -0.7076 0.7066 93.8178 -79.7505)" fill="#BEBDC6" width="1.368" height="5.249"/>
	</g>
</g>
<g>
	<g>
		
			<rect x="72.677" y="17.157" transform="matrix(0.7068 0.7074 -0.7074 0.7068 34.6973 -48.0367)" fill="#BEBDC6" width="5.25" height="1.368"/>
	</g>
	<g>
		
			<rect x="80.367" y="24.847" transform="matrix(0.7072 0.707 -0.707 0.7072 42.3458 -51.1989)" fill="#BEBDC6" width="5.251" height="1.368"/>
	</g>
	<g>
		
			<rect x="82.309" y="15.215" transform="matrix(0.7073 0.7069 -0.7069 0.7073 36.9059 -53.4474)" fill="#BEBDC6" width="1.368" height="5.252"/>
	</g>
	<g>
		
			<rect x="74.617" y="22.906" transform="matrix(0.7071 0.7071 -0.7071 0.7071 40.1083 -45.7686)" fill="#BEBDC6" width="1.369" height="5.249"/>
	</g>
</g>
<g>
	<g>
		
			<rect x="48.268" y="57.198" transform="matrix(0.7067 0.7075 -0.7075 0.7067 55.8752 -19.0307)" fill="#BEBDC6" width="5.25" height="1.368"/>
	</g>
	<g>
		
			<rect x="55.958" y="64.886" transform="matrix(0.7072 0.707 -0.707 0.7072 63.5126 -22.2203)" fill="#BEBDC6" width="5.252" height="1.368"/>
	</g>
	<g>
		
			<rect x="57.899" y="55.256" transform="matrix(0.7071 0.7071 -0.7071 0.7071 58.0873 -24.4716)" fill="#BEBDC6" width="1.369" height="5.252"/>
	</g>
	<g>
		
			<rect x="50.208" y="62.946" transform="matrix(0.7069 0.7073 -0.7073 0.7069 61.2923 -16.7787)" fill="#BEBDC6" width="1.368" height="5.249"/>
	</g>
</g>
<g>
	<rect x="84.85" y="48.776" fill="#3DD381" width="25.468" height="2.695"/>
</g>
<g>
	<rect x="84.85" y="56.534" fill="#3DD381" width="25.468" height="2.695"/>
</g>
<g>
	<rect x="84.85" y="64.013" fill="#3DD381" width="15.755" height="2.695"/>
</g>
<path fill="#3DD381" d="M124.364,50.155v-8.532c0-2.938-2.391-5.328-5.331-5.328H84.525c-2.938,0-5.328,2.389-5.328,5.328v54.732
	h2.698V41.623c0-1.451,1.178-2.632,2.63-2.632h29.904c-0.447,0.78-0.723,1.67-0.723,2.632v54.732h2.697V66.708h10.593
	c2.937,0,5.327-2.389,5.327-5.328V50.155H124.364z M116.404,64.013v-22.39c0-1.451,1.179-2.632,2.629-2.632
	c1.452,0,2.633,1.181,2.633,2.632V61.38c0,0.962,0.276,1.853,0.724,2.633H116.404z M129.626,61.38c0,1.452-1.178,2.633-2.629,2.633
	c-1.452,0-2.633-1.181-2.633-2.633v-8.53h5.262V61.38z"/>
</svg>
