<?xml version="1.0" encoding="utf-8"?>
<!-- Generator: Adobe Illustrator 19.0.0, SVG Export Plug-In . SVG Version: 6.00 Build 0)  -->
<svg version="1.1" id="Capa_1" xmlns="http://www.w3.org/2000/svg" xmlns:xlink="http://www.w3.org/1999/xlink" x="0px" y="0px"
	 viewBox="0 0 375.5 234.5" style="enable-background:new 0 0 375.5 234.5;" xml:space="preserve">
<style type="text/css">
	.st0{fill:#3DD381;}
</style>
<g>
	<path class="st0" d="M331.7,164.6c0.3-0.3,0.4-0.6,0.7-0.9c0.3-0.4,0.8-0.7,0.9-1.3c0.1-0.3,0-0.7,0-1c0-0.2,0.3-0.4,0.3-0.7V59.7
		c0-0.3-0.2-0.4-0.3-0.7c0-0.4,0.1-0.7,0-1c-0.2-0.5-0.6-0.8-0.9-1.3c-0.2-0.3-0.4-0.6-0.7-0.9c-0.9-0.8-2.1-1.4-3.4-1.4H156.9
		c-1.3,0-2.4,0.6-3.4,1.4c-0.3,0.3-0.4,0.6-0.6,0.9c-0.3,0.4-0.8,0.8-1,1.3c-0.1,0.3,0,0.7,0,1c0,0.2-0.3,0.4-0.3,0.7v38.7h10.5
		V70.3l52.2,39.9l-52.2,39.9v-33.6H181V106h-42.3v10.6h13v44.2c0,0.3,0.2,0.4,0.3,0.7c0,0.4-0.1,0.7,0,1c0.2,0.5,0.6,0.8,1,1.3
		c0.2,0.3,0.4,0.6,0.6,0.9c0.9,0.8,2.1,1.4,3.4,1.4h171.4C329.6,166,330.7,165.4,331.7,164.6z M323,150.1l-52.2-39.9L323,70.3V150.1
		z M312.8,64.9l-65.1,49.8c-3,2.2-7.2,2.2-10.1,0l-65.1-49.8H312.8z M172.4,155.5l50.6-38.7l8.2,6.3c3.2,2.5,7.3,3.9,11.4,3.9
		c4.1,0,8.2-1.4,11.4-3.9l8.2-6.3l50.6,38.7H172.4z"/>
	<rect x="96.3" y="169.5" class="st0" width="21.2" height="10.6"/>
	<rect x="32.8" y="84.8" class="st0" width="63.5" height="10.6"/>
</g>
</svg>
