<?xml version="1.0" encoding="utf-8"?>
<!-- Generator: Adobe Illustrator 16.0.0, SVG Export Plug-In . SVG Version: 6.00 Build 0)  -->
<!DOCTYPE svg PUBLIC "-//W3C//DTD SVG 1.1//EN" "http://www.w3.org/Graphics/SVG/1.1/DTD/svg11.dtd">
<svg version="1.1" id="Capa_1" xmlns="http://www.w3.org/2000/svg" xmlns:xlink="http://www.w3.org/1999/xlink" x="0px" y="0px"
	 width="1215px" height="260.383px" viewBox="0 0 1215 260.383" enable-background="new 0 0 1215 260.383" xml:space="preserve">
<path fill="#FFFFFF" d="M251.479,160.178h-75.311c2.975,15.027,11.844,22.543,26.59,22.543c6.099,0,11.139-1.129,15.107-3.4
	c3.967-2.269,6.738-5.527,8.3-9.781l23.828,8.722c-3.408,8.509-9.119,14.996-17.125,19.466c-8.015,4.471-18.05,6.703-30.11,6.703
	c-17.584,0-31.2-4.855-40.843-14.58c-9.646-9.707-14.47-23.297-14.47-40.742c0-17.444,4.685-31.022,14.046-40.738
	c9.361-9.716,22.555-14.572,39.566-14.572c16.453,0,29.109,4.755,37.979,14.252c8.861,9.509,13.297,23.055,13.297,40.637
	C252.332,152.652,252.047,156.482,251.479,160.178z M183.932,121.457c-4.184,4.115-6.842,10.204-7.971,18.288h49.564
	c-1.137-7.937-3.83-14.002-8.084-18.187c-4.252-4.185-9.783-6.273-16.591-6.273C193.75,115.285,188.116,117.339,183.932,121.457z"/>
<path fill="#FFFFFF" d="M367.951,103.793c7.014,6.671,10.526,16.248,10.526,28.723v69.78h-29.145v-61.274
	c0-16.166-6.316-24.25-18.938-24.25c-6.807,0-12.588,2.414-17.334,7.238c-4.755,4.822-7.126,12.199-7.126,22.121v56.166h-29.153
	V95.927h26.169l0.855,18.928c3.544-6.944,8.436-12.19,14.674-15.738c6.245-3.544,13.479-5.322,21.708-5.322
	C351.672,93.795,360.928,97.134,367.951,103.793z"/>
<path fill="#FFFFFF" d="M480.597,195.704c-3.398,2.692-7.697,4.823-12.874,6.377c-5.177,1.563-10.603,2.349-16.271,2.349
	c-23.69,0-35.528-10.707-35.528-32.132v-54.674h-19.361V95.927h19.361V71.459l29.145-8.084v32.552h34.469v21.697h-34.469v49.998
	c0,9.785,4.892,14.677,14.685,14.677c6.239,0,11.699-1.984,16.376-5.953L480.597,195.704z"/>
<path fill="#FFFFFF" d="M495.489,65.073c0-10.493,6.02-15.735,18.081-15.735c12.055,0,18.085,5.243,18.085,15.735
	c0,10.353-6.03,15.529-18.085,15.529C501.509,80.602,495.489,75.426,495.489,65.073z M528.041,202.297h-29.152V95.927h29.152
	V202.297z"/>
<path fill="#FFFFFF" d="M663.348,183.79l-2.132,17.651c-3.968,1.985-8.583,2.986-13.83,2.986c-13.611,0-21.767-5.324-24.459-15.962
	c-3.124,5.255-7.943,9.224-14.467,11.917c-6.522,2.689-14.253,4.045-23.192,4.045c-10.352,0-18.437-2.348-24.253-7.021
	c-5.814-4.687-8.725-11.415-8.725-20.215c0-17.299,13.831-28.508,41.483-33.613l25.528-4.895v-5.106
	c0-5.668-1.597-10.172-4.776-13.501c-3.193-3.34-7.628-5.006-13.306-5.006c-6.521,0-11.838,1.426-15.952,4.255
	c-4.114,2.838-6.953,7.444-8.507,13.831l-23.19-9.786c2.269-9.222,7.375-16.454,15.313-21.696
	c7.945-5.246,18.301-7.878,31.063-7.878c15.174,0,27.021,3.295,35.525,9.896c8.516,6.593,12.771,16.35,12.771,29.248v43.612
	c0,2.839,0.64,4.892,1.917,6.168c1.275,1.277,3.26,1.917,5.952,1.917C659.094,184.637,661.501,184.359,663.348,183.79z
	 M611.539,180.064c5.177-3.047,7.764-7.197,7.764-12.442v-11.067l-22.758,5.105c-4.824,1.14-8.403,2.658-10.742,4.574
	c-2.347,1.914-3.513,4.58-3.513,7.979c0,3.408,1.062,5.997,3.193,7.766c2.122,1.776,5.104,2.658,8.93,2.658
	C600.66,184.637,606.363,183.118,611.539,180.064z"/>
<polygon fill="#FFFFFF" points="79.519,157.58 66.708,134.868 59,143.203 59,48.883 30,48.883 30,201.883 59,201.883 59,180.273 "/>
<g>
	<polygon fill="#3DD381" points="66.708,134.868 102.075,95.883 135.466,95.883 98.063,137.232 134.654,201.883 104.74,201.883 	"/>
	<polygon fill="#3DD381" points="743.468,134.868 708.101,95.883 674.709,95.883 712.113,137.232 675.521,201.883 705.436,201.883 	
		"/>
</g>
<g>
	<path fill="#FFFFFF" d="M779.023,200.814c-5.716-3.228-9.472-7.858-11.237-13.894l3.747-2.187
		c1.455,5.621,4.736,9.863,9.842,12.721c5.088,2.865,11.439,4.291,19.04,4.291c7.905,0,14.144-1.557,18.733-4.68
		c4.574-3.123,6.861-7.338,6.861-12.644c0-4.473-1.869-8.012-5.618-10.618c-3.748-2.595-10.354-4.729-19.825-6.398
		c-10.82-1.869-18.412-4.422-22.786-7.648c-4.376-3.22-6.561-7.748-6.561-13.582c0-4.053,1.252-7.727,3.75-11
		c2.494-3.273,5.957-5.876,10.381-7.803c4.423-1.927,9.444-2.893,15.063-2.893c8.219,0,14.749,1.563,19.582,4.687
		c4.84,3.121,8.038,8.01,9.604,14.672l-3.748,2.185c-2.707-11.861-11.184-17.794-25.438-17.794c-4.689,0-8.93,0.759-12.727,2.267
		c-3.799,1.508-6.762,3.589-8.896,6.236c-2.134,2.658-3.204,5.543-3.204,8.666c0,4.896,1.932,8.72,5.785,11.474
		c3.838,2.762,10.659,4.974,20.444,6.633c10.508,1.774,17.896,4.244,22.161,7.415c4.265,3.178,6.403,7.621,6.403,13.346
		c0,6.557-2.76,11.766-8.274,15.611c-5.521,3.854-12.961,5.771-22.32,5.771C791.666,205.648,784.754,204.041,779.023,200.814z"/>
	<path fill="#FFFFFF" d="M891.093,199.563c-1.86,1.773-4.212,3.227-7.022,4.373c-2.811,1.143-5.827,1.713-9.045,1.713
		c-6.245,0-11.012-1.768-14.286-5.307c-3.274-3.531-4.915-8.839-4.915-15.918v-54.639h-15.609v-3.741h15.609v-19.979l4.368-1.251
		v21.23h29.816v3.741h-29.816v54.324c0,11.76,5.103,17.637,15.298,17.637c5.411,0,9.984-1.921,13.742-5.773L891.093,199.563z"/>
	<path fill="#FFFFFF" d="M968.054,126.045v78.045H964l-0.16-18.572c-2.189,6.139-6.113,11.027-11.787,14.674
		c-5.675,3.644-12.355,5.457-20.056,5.457c-8.54,0-15.244-2.394-20.139-7.178c-4.896-4.783-7.338-11.654-7.338-20.604v-51.822h4.375
		v50.883c0,8.123,2.052,14.283,6.16,18.498c4.117,4.215,10.017,6.321,17.721,6.321c6.551,0,12.148-1.481,16.779-4.444
		c4.625-2.969,8.146-6.717,10.536-11.242c2.395-4.527,3.588-9.027,3.588-13.5v-46.516H968.054L968.054,126.045z"/>
	<path fill="#FFFFFF" d="M1060.62,90.142V204.09h-4.063l-0.152-20.917c-2.087,7.079-5.836,12.595-11.245,16.543
		c-5.41,3.958-11.966,5.933-19.667,5.933c-11.131,0-19.88-3.588-26.222-10.765c-6.351-7.184-9.527-17.122-9.527-29.819
		c0-12.689,3.178-22.627,9.527-29.812c6.342-7.177,15.091-10.771,26.222-10.771c7.596,0,14.097,1.954,19.507,5.854
		c5.411,3.903,9.166,9.396,11.247,16.469V90.142H1060.62z M1047.739,192.389c5.46-6.246,8.291-14.779,8.508-25.604v-3.438
		c-0.217-10.818-3.048-19.373-8.508-25.673c-5.465-6.293-12.669-9.443-21.626-9.443c-10.09,0-17.942,3.254-23.561,9.756
		c-5.626,6.502-8.437,15.529-8.437,27.078c0,11.552,2.811,20.557,8.437,27.011c5.617,6.452,13.471,9.673,23.561,9.673
		C1035.07,201.747,1042.274,198.624,1047.739,192.389z"/>
	<path fill="#FFFFFF" d="M1086.369,109.495c-0.834-0.828-1.252-1.919-1.252-3.275c0-1.349,0.438-2.44,1.329-3.275
		c0.884-0.835,2.004-1.252,3.353-1.252c1.354,0,2.447,0.417,3.282,1.252c0.834,0.835,1.251,1.927,1.251,3.275
		c0,1.356-0.417,2.447-1.251,3.275c-0.835,0.835-1.928,1.252-3.282,1.252C1088.344,110.747,1087.197,110.33,1086.369,109.495z
		 M1091.989,204.09h-4.375v-78.045h4.375V204.09z"/>
	<path fill="#FFFFFF" d="M1177.293,135.253c6.493,7.185,9.75,17.121,9.75,29.812c0,12.697-3.257,22.637-9.75,29.819
		c-6.508,7.177-15.432,10.765-26.771,10.765c-11.448,0-20.444-3.609-27.003-10.849c-6.558-7.226-9.84-17.142-9.84-29.735
		c0-12.586,3.282-22.496,9.84-29.734c6.559-7.233,15.555-10.848,27.003-10.848C1161.861,124.481,1170.785,128.076,1177.293,135.253z
		 M1126.717,138.061c-5.777,6.56-8.664,15.56-8.664,27.004c0,11.453,2.887,20.453,8.664,27.011
		c5.777,6.55,13.707,9.832,23.806,9.832c9.984,0,17.843-3.282,23.57-9.832c5.72-6.558,8.583-15.558,8.583-27.011
		c0-11.444-2.863-20.444-8.583-27.004c-5.729-6.557-13.586-9.831-23.57-9.831C1140.424,128.229,1132.494,131.504,1126.717,138.061z"
		/>
</g>
</svg>
